<svg width="2667" height="815" fill="none" xmlns="http://www.w3.org/2000/svg"><g clip-path="url(#clip0)"><path d="M969.499 814.59l-111.5-175c-5.5-8-19-8-24.5 0l-111.5 175c-5.5 8.5-5.5 19.5-.5 28.5s14 14.5 24.5 14.5h199.5c10.5 0 19.5-5.5 24.5-14.5s5-20-.5-28.5zm-123.5-141l35.5 56h-35.5l-24 32-15.5-26 39.5-62z" fill="#3C4E68"/><path d="M2530.5 808.59l-111.5-175c-5.5-8-19-8-24.5 0l-111.5 175c-5.5 8.5-5.5 19.5-.5 28.5s14 14.5 24.5 14.5h199.5c10.5 0 19.5-5.5 24.5-14.5s5-20-.5-28.5zm-123.5-141l35.5 56H2407l-24 32-15.5-26 39.5-62zM406.5 850c25.5 0 41-28 27-49l-63-99c-6-9.5-20.5-9.5-27 0l-20 31.5L259 632c-5.5-8-19-8-24.5 0L123 807c-12 18.5 2 43 24 43h259.5z" fill="#193154"/><path d="M1820.94 824.59c8.15 0 12.37-9.562 7.03-15.75l-25.31-29.25h10.12c7.31 0 11.25-8.156 6.75-13.5l-26.72-31.5h12.38c6.18 0 9.28-6.187 5.62-10.406l-37.97-41.062c-2.81-3.094-8.15-3.094-10.97 0l-37.96 41.062c-3.66 4.219-.57 10.406 5.62 10.406h12.66l-26.72 31.5c-4.78 5.344-.85 13.5 6.47 13.5h10.12l-25.31 29.25c-5.34 6.188-1.13 15.75 7.03 15.75h107.16z" fill="#3C4E68"/><path d="M1872.94 824.59c8.15 0 12.37-9.562 7.03-15.75l-25.31-29.25h10.12c7.31 0 11.25-8.156 6.75-13.5l-26.72-31.5h12.38c6.18 0 9.28-6.187 5.62-10.406l-37.97-41.062c-2.81-3.094-8.15-3.094-10.97 0l-37.96 41.062c-3.66 4.219-.57 10.406 5.62 10.406h12.66l-26.72 31.5c-4.78 5.344-.85 13.5 6.47 13.5h10.12l-25.31 29.25c-5.34 6.188-1.13 15.75 7.03 15.75h107.16z" fill="#193154"/><path d="M2235.44 824.59c8.15 0 12.37-9.562 7.03-15.75l-25.31-29.25h10.12c7.31 0 11.25-8.156 6.75-13.5l-26.72-31.5h12.38c6.18 0 9.28-6.187 5.62-10.406l-37.97-41.062c-2.81-3.094-8.15-3.094-10.97 0l-37.96 41.062c-3.66 4.219-.57 10.406 5.62 10.406h12.66l-26.72 31.5c-4.78 5.344-.85 13.5 6.47 13.5h10.12l-25.31 29.25c-5.34 6.188-1.13 15.75 7.03 15.75h107.16z" fill="#3C4E68"/><path d="M759.937 824.59c8.156 0 12.375-9.562 7.031-15.75l-25.312-29.25h10.125c7.312 0 11.25-8.156 6.75-13.5l-26.719-31.5h12.375c6.188 0 9.281-6.187 5.625-10.406l-37.969-41.062c-2.812-3.094-8.156-3.094-10.968 0l-37.969 41.062c-3.656 4.219-.563 10.406 5.625 10.406h12.656l-26.719 31.5c-4.781 5.344-.843 13.5 6.469 13.5h10.125l-25.312 29.25c-5.344 6.188-1.125 15.75 7.031 15.75h107.156z" fill="#193154"/><path d="M604.937 824.59c8.156 0 12.375-9.562 7.031-15.75l-25.312-29.25h10.125c7.312 0 11.25-8.156 6.75-13.5l-26.719-31.5h12.375c6.188 0 9.281-6.187 5.625-10.406l-37.969-41.062c-2.812-3.094-8.156-3.094-10.968 0l-37.969 41.062c-3.656 4.219-.563 10.406 5.625 10.406h12.656l-26.719 31.5c-4.781 5.344-.843 13.5 6.469 13.5h10.125l-25.312 29.25c-5.344 6.188-1.125 15.75 7.031 15.75h107.156z" fill="#3C4E68"/><path d="M556.937 824.59c8.156 0 12.375-9.562 7.031-15.75l-25.312-29.25h10.125c7.312 0 11.25-8.156 6.75-13.5l-26.719-31.5h12.375c6.188 0 9.281-6.187 5.625-10.406l-37.969-41.062c-2.812-3.094-8.156-3.094-10.968 0l-37.969 41.062c-3.656 4.219-.563 10.406 5.625 10.406h12.656l-26.719 31.5c-4.781 5.344-.843 13.5 6.469 13.5h10.125l-25.312 29.25c-5.344 6.188-1.125 15.75 7.031 15.75h107.156zM166.937 824.59c8.156 0 12.375-9.562 7.031-15.75l-25.312-29.25h10.125c7.312 0 11.25-8.156 6.75-13.5l-26.719-31.5h12.375c6.188 0 9.281-6.187 5.625-10.406l-37.969-41.062c-2.812-3.094-8.156-3.094-10.968 0l-37.969 41.062c-3.656 4.219-.563 10.406 5.625 10.406h12.656l-26.718 31.5c-4.782 5.344-.844 13.5 6.468 13.5h10.125L52.75 808.84c-5.344 6.188-1.125 15.75 7.031 15.75h107.156z" fill="#3C4E68"/><path d="M1122 677h80v94h-80v-94z" fill="#FFD43B"/><path d="M944 705h115v94H944v-94zM1067 736h32v63h-32v-63z" fill="#3C4E68"/><path d="M1029 682h28v57h-28v-57z" fill="#FFD43B"/><path d="M1202.75 667.59h-85.5c-8.02 0-14.25 6.532-14.25 14.25v128.25c0 5.344 4.16 9.5 9.5 9.5h33.25v-23.75c0-7.718 6.23-14.25 14.25-14.25 7.72 0 14.25 6.532 14.25 14.25v23.75h33.25c5.05 0 9.5-4.156 9.5-9.5V681.84c0-7.718-6.53-14.25-14.25-14.25zm-52.25 90.25c0 2.672-2.38 4.75-4.75 4.75h-9.5c-2.67 0-4.75-2.078-4.75-4.75v-9.5c0-2.375 2.08-4.75 4.75-4.75h9.5c2.37 0 4.75 2.375 4.75 4.75v9.5zm0-28.5c0 2.672-2.38 4.75-4.75 4.75h-9.5c-2.67 0-4.75-2.078-4.75-4.75v-9.5c0-2.375 2.08-4.75 4.75-4.75h9.5c2.37 0 4.75 2.375 4.75 4.75v9.5zm0-28.5c0 2.672-2.38 4.75-4.75 4.75h-9.5c-2.67 0-4.75-2.078-4.75-4.75v-9.5c0-2.375 2.08-4.75 4.75-4.75h9.5c2.37 0 4.75 2.375 4.75 4.75v9.5zm38 57c0 2.672-2.38 4.75-4.75 4.75h-9.5c-2.67 0-4.75-2.078-4.75-4.75v-9.5c0-2.375 2.08-4.75 4.75-4.75h9.5c2.37 0 4.75 2.375 4.75 4.75v9.5zm0-28.5c0 2.672-2.38 4.75-4.75 4.75h-9.5c-2.67 0-4.75-2.078-4.75-4.75v-9.5c0-2.375 2.08-4.75 4.75-4.75h9.5c2.37 0 4.75 2.375 4.75 4.75v9.5zm0-28.5c0 2.672-2.38 4.75-4.75 4.75h-9.5c-2.67 0-4.75-2.078-4.75-4.75v-9.5c0-2.375 2.08-4.75 4.75-4.75h9.5c2.37 0 4.75 2.375 4.75 4.75v9.5z" fill="#3C4E68"/><path d="M1116 738.84c0-7.718-6.53-14.25-14.25-14.25h-33.25v-42.75c0-7.718-6.53-14.25-14.25-14.25h-28.5c-8.02 0-14.25 6.532-14.25 14.25v14.25h-19v-21.375c0-3.859-3.266-7.125-7.125-7.125-4.156 0-7.125 3.266-7.125 7.125v21.375h-19v-21.375c0-3.859-3.266-7.125-7.125-7.125-4.156 0-7.125 3.266-7.125 7.125v21.375h-4.75c-8.016 0-14.25 6.532-14.25 14.25v99.75c0 5.344 4.156 9.5 9.5 9.5h171c5.05 0 9.5-4.156 9.5-9.5v-71.25zm-152-20.187v11.875c0 2.078-1.781 3.562-3.562 3.562h-11.876c-2.078 0-3.562-1.484-3.562-3.562v-11.875c0-1.781 1.484-3.563 3.562-3.563h11.876c1.781 0 3.562 1.782 3.562 3.563zm0 28.5v11.875c0 2.078-1.781 3.562-3.562 3.562h-11.876c-2.078 0-3.562-1.484-3.562-3.562v-11.875c0-1.781 1.484-3.563 3.562-3.563h11.876c1.781 0 3.562 1.782 3.562 3.563zm0 28.5v11.875c0 2.078-1.781 3.562-3.562 3.562h-11.876c-2.078 0-3.562-1.484-3.562-3.562v-11.875c0-1.781 1.484-3.563 3.562-3.563h11.876c1.781 0 3.562 1.782 3.562 3.563zm38-57v11.875c0 2.078-1.78 3.562-3.562 3.562h-11.876c-2.078 0-3.562-1.484-3.562-3.562v-11.875c0-1.781 1.484-3.563 3.562-3.563h11.876c1.782 0 3.562 1.782 3.562 3.563zm0 28.5v11.875c0 2.078-1.78 3.562-3.562 3.562h-11.876c-2.078 0-3.562-1.484-3.562-3.562v-11.875c0-1.781 1.484-3.563 3.562-3.563h11.876c1.782 0 3.562 1.782 3.562 3.563zm0 28.5v11.875c0 2.078-1.78 3.562-3.562 3.562h-11.876c-2.078 0-3.562-1.484-3.562-3.562v-11.875c0-1.781 1.484-3.563 3.562-3.563h11.876c1.782 0 3.562 1.782 3.562 3.563zm47.5-85.5v11.875c0 2.078-1.78 3.562-3.56 3.562h-11.88c-2.08 0-3.56-1.484-3.56-3.562v-11.875c0-1.781 1.48-3.563 3.56-3.563h11.88c1.78 0 3.56 1.782 3.56 3.563zm0 28.5v11.875c0 2.078-1.78 3.562-3.56 3.562h-11.88c-2.08 0-3.56-1.484-3.56-3.562v-11.875c0-1.781 1.48-3.563 3.56-3.563h11.88c1.78 0 3.56 1.782 3.56 3.563zm0 28.5v11.875c0 2.078-1.78 3.562-3.56 3.562h-11.88c-2.08 0-3.56-1.484-3.56-3.562v-11.875c0-1.781 1.48-3.563 3.56-3.563h11.88c1.78 0 3.56 1.782 3.56 3.563zm47.5 0v11.875c0 2.078-1.78 3.562-3.56 3.562h-11.88c-2.08 0-3.56-1.484-3.56-3.562v-11.875c0-1.781 1.48-3.563 3.56-3.563h11.88c1.78 0 3.56 1.782 3.56 3.563zm0 28.5v11.875c0 2.078-1.78 3.562-3.56 3.562h-11.88c-2.08 0-3.56-1.484-3.56-3.562v-11.875c0-1.781 1.48-3.563 3.56-3.563h11.88c1.78 0 3.56 1.782 3.56 3.563z" fill="#3C4E68"/><path d="M1495 732.59h56v49h-56v-49z" fill="#FFD43B"/><path d="M1592.25 751.59l-13.5-11.5v-34.5c0-2-1.75-4-4-4h-16c-2 0-4 2-4 4v13.5l-26.5-23.5c-1.75-1.25-3.5-2-5.5-1.75-1.75 0-3.75.5-5.25 1.75l-64 56c-1.75 1.75-2.5 3.75-2.5 6 0 4.5 3.5 8 8 8h8v40c0 9 7 16 16 16h79.75c9 0 16-7 16-16v-40h8c4.5 0 8-3.5 8-8 0-2.25-.75-4.25-2.5-6zM1539 768.34c0 3-2.5 5.25-5.5 5.25h-21.25c-3 0-5.25-2.25-5.25-5.25v-21.25c0-3 2.25-5.5 5.25-5.5h21.25c3 0 5.5 2.5 5.5 5.5v21.25z" fill="#3C4E68"/><path d="M1292 763c3.25 0 6-2.625 6-6 0-3.25-2.75-6-6-6-3.38 0-6 2.75-6 6 0 3.375 2.62 6 6 6zm-16.88 36.25c-.37 1-1 2-1.74 2.75l-6.26 6.25c-1.62 1.5-1.62 4.125 0 5.625 1.5 1.625 4.13 1.625 5.63 0l7.37-7.375c.88-.75 1.38-1.75 1.88-2.75l1.62-4.25c-6.87-7.5-4.87-5.125-5.87-6.625l-2.63 6.375zm28.63-17.5l-2.87-1.5-1.26-3.75c-1.87-5.5-7-9.375-12.74-9.5-4.5 0-7 1.375-11.76 3.25-2.62 1-4.87 3.125-6.12 5.75l-.88 1.75c-1 1.875-.12 4.375 1.76 5.25 2 1 4.37.25 5.37-1.75l.75-1.625c.5-.875 1.25-1.625 2.12-2l3.38-1.375-1.88 7.625c-.74 2.625 0 5.375 1.76 7.375l7.5 8.125c1 1 1.62 2.25 1.87 3.5l2.37 9.125c.5 2.125 2.63 3.5 4.76 3 2.12-.625 3.5-2.75 3-4.875L1298 799c-.25-1.375-.88-2.5-1.75-3.5l-5.75-6.25 2.12-8.5.76 2c.62 2 2 3.75 3.87 4.625l3 1.5c1.87 1 4.25.125 5.25-1.75 1-2 .25-4.375-1.75-5.375z" fill="#fff"/><path d="M1332 699h33v33h-33v-33z" fill="#FAB005"/><path d="M1348 690c-17.75 0-32 11.75-32 26 0 6.25 2.63 11.875 7.13 16.375-1.63 6.375-6.88 11.875-6.88 12-.25.25-.37.75-.25 1.125.25.375.5.5 1 .5 8.25 0 14.5-3.875 17.5-6.375 4.13 1.5 8.63 2.375 13.5 2.375 17.63 0 32-11.625 32-26 0-14.25-14.37-26-32-26zm7.88 14c2.25 0 4 1.875 4 4 0 2.25-1.75 4-4 4-2.13 0-4-1.75-4-4 0-2.125 1.87-4 4-4zm-16 0c2.25 0 4 1.875 4 4 0 2.25-1.75 4-4 4-2.13 0-4-1.75-4-4 0-2.125 1.87-4 4-4zm21.37 20c-3.37 3.875-8.12 6-13.37 6-5.13 0-9.88-2.125-13.25-6-1-1.25-.88-3.125.37-4.25s3.13-.875 4.25.375c2.13 2.5 5.25 3.875 8.63 3.875 3.5 0 6.62-1.375 8.75-3.875 1.12-1.25 3-1.5 4.25-.375s1.37 3 .37 4.25z" fill="#FFD43B"/><path d="M2070.44 769.625l-11.06-10.875c-2.07-2.25-5.26-3.562-8.44-3.562h-19.13v45c0 6.374 4.31 12.374 10.5 14.25 10.13 3 19.5-4.5 19.5-14.25v-3h6c3.38-.188 6.19-2.813 6.19-6.188v-12.938c-.19-3.187-1.31-6.187-3.56-8.437zM2046.81 806c-3.37 0-5.81-2.625-5.81-6 0-3.188 2.62-6 5.81-6 3 0 5.81 2.812 5.81 6 .19 3.375-2.43 6-5.81 6zm-3-33v-9h6.94c.75 0 1.5.375 2.06.938l8.25 8.062h-17.25zm24-30c0-9.938-8.06-17.812-18-17.812H2026l-.19-3.188c0-1.688-1.31-3-2.81-3h-24.19c-1.69 0-2.81 1.312-2.81 2.812v3h-30c-6.75.188-12 5.626-12 12.188v36.938c0 3.187 1.12 6.187 3.38 8.437L1972 797l-.19 2.25c0 7.875 5.81 15 13.5 15.75 9 .938 16.5-6.188 16.5-15v-3h24v-47.812h35.81c3.57-.188 6.38-2.813 6.19-6.188zm-81 63c-3.37 0-5.81-2.625-5.81-6 0-3.188 2.62-6 5.81-6 3 0 5.81 2.812 5.81 6 .19 3.375-2.43 6-5.81 6zm15-48c0 1.688-1.5 3-2.81 3h-24.19c-1.69 0-2.81-1.312-2.81-3v-12c0-1.5 1.31-3 2.81-3h23.81c1.5 0 2.82 1.5 2.82 3v12h.37zM511 770.5h13.5c2.391 0 4.5-1.969 4.5-4.5 0-2.391-2.109-4.5-4.5-4.5H511c-2.531 0-4.5 2.109-4.5 4.5 0 2.531 1.969 4.5 4.5 4.5zm54 18c-7.594 0-13.5 6.047-13.5 13.5 0 7.594 5.906 13.5 13.5 13.5 7.453 0 13.5-5.906 13.5-13.5 0-7.453-6.047-13.5-13.5-13.5zm0 20.25c-3.797 0-6.75-2.953-6.75-6.75 0-3.656 2.953-6.75 6.75-6.75 3.656 0 6.75 3.094 6.75 6.75 0 3.797-3.094 6.75-6.75 6.75zm15.891-22.5A22.144 22.144 0 0 0 565 779.5c-1.125 0-2.109.281-3.094.422l-3.656-12.656 5.766 2.812c.562.281 1.265.422 1.968.422h1.266c1.125 0 2.25-.984 2.25-2.25v-9c0-1.125-1.125-2.25-2.25-2.25h-1.266c-.703 0-1.406.281-1.968.562l-7.454 3.657-1.828-6.188c-.422-1.406-1.828-2.531-3.234-2.531h-10.125c-1.969 0-3.375 1.547-3.375 3.375 0 1.969 1.406 3.375 3.375 3.375h7.594l6.469 22.5c-4.922 2.25-8.86 6.328-11.11 11.25H533.5c-2.531 0-4.5-1.969-4.5-4.5v-9c0-2.391-2.109-4.5-4.5-4.5H511c-9.984 0-18 8.156-18 18v4.5c0 2.531 1.969 4.5 4.5 4.5h4.5c0 7.594 5.906 13.5 13.5 13.5 7.453 0 13.5-5.906 13.5-13.5h16.172c2.25 0 3.937-1.406 4.359-3.516 1.688-7.031 8.016-12.234 15.469-12.234 4.078 0 8.156 1.688 11.109 4.641 1.266 1.406 3.375 1.406 4.782.14 1.265-1.406 1.265-3.515 0-4.781zm-65.391 22.5c-3.797 0-6.75-2.953-6.75-6.75h13.5c0 3.797-3.094 6.75-6.75 6.75zM815.75 813l-22.5-26h9c6.5 0 10-7.25 6-12l-23.75-28h11c5.5 0 8.25-5.5 5-9.25l-33.75-36.5c-2.5-2.75-7.25-2.75-9.75 0l-33.75 36.5c-3.25 3.75-.5 9.25 5 9.25h11.25l-23.75 28c-4.25 4.75-.75 12 5.75 12h9L708 813c-4.75 5.5-1 14 6.25 14h95.25c7.25 0 11-8.5 6.25-14zM2292.75 817l-22.5-26h9c6.5 0 10-7.25 6-12l-23.75-28h11c5.5 0 8.25-5.5 5-9.25l-33.75-36.5c-2.5-2.75-7.25-2.75-9.75 0l-33.75 36.5c-3.25 3.75-.5 9.25 5 9.25h11.25l-23.75 28c-4.25 4.75-.75 12 5.75 12h9l-22.5 26c-4.75 5.5-1 14 6.25 14h95.25c7.25 0 11-8.5 6.25-14zM1660.75 813l-22.5-26h9c6.5 0 10-7.25 6-12l-23.75-28h11c5.5 0 8.25-5.5 5-9.25l-33.75-36.5c-2.5-2.75-7.25-2.75-9.75 0l-33.75 36.5c-3.25 3.75-.5 9.25 5 9.25h11.25l-23.75 28c-4.25 4.75-.75 12 5.75 12h9l-22.5 26c-4.75 5.5-1 14 6.25 14h95.25c7.25 0 11-8.5 6.25-14zM448.75 813l-22.5-26h9c6.5 0 10-7.25 6-12l-23.75-28h11c5.5 0 8.25-5.5 5-9.25l-33.75-36.5c-2.5-2.75-7.25-2.75-9.75 0l-33.75 36.5c-3.25 3.75-.5 9.25 5 9.25h11.25l-23.75 28c-4.25 4.75-.75 12 5.75 12h9L341 813c-4.75 5.5-1 14 6.25 14h95.25c7.25 0 11-8.5 6.25-14z" fill="#fff"/><path d="M719.516 366.922c.562-1.547.984-3.094.984-4.922 0-7.453-6.047-13.5-13.5-13.5-2.812 0-5.484.844-7.594 2.391-3.797-6.75-11.109-11.391-19.406-11.391-12.516 0-22.5 10.125-22.5 22.5v1.266c-7.875 2.672-13.5 10.265-13.5 18.984 0 11.25 9 20.25 20.25 20.25H716c9.844 0 18-8.016 18-18 0-8.578-6.188-15.891-14.484-17.578zM260.516 244.922c.562-1.547.984-3.094.984-4.922 0-7.453-6.047-13.5-13.5-13.5-2.812 0-5.484.844-7.594 2.391-3.797-6.75-11.109-11.391-19.406-11.391-12.516 0-22.5 10.125-22.5 22.5v1.266c-7.875 2.672-13.5 10.265-13.5 18.984 0 11.25 9 20.25 20.25 20.25H257c9.844 0 18-8.015 18-18 0-8.578-6.188-15.89-14.484-17.578zM2008.52 241.922c.56-1.547.98-3.094.98-4.922 0-7.453-6.05-13.5-13.5-13.5-2.81 0-5.48.844-7.59 2.391-3.8-6.75-11.11-11.391-19.41-11.391-12.52 0-22.5 10.125-22.5 22.5v1.266c-7.88 2.672-13.5 10.265-13.5 18.984 0 11.25 9 20.25 20.25 20.25H2005c9.84 0 18-8.015 18-18 0-8.578-6.19-15.89-14.48-17.578zM2382.52 431.922c.56-1.547.98-3.094.98-4.922 0-7.453-6.05-13.5-13.5-13.5-2.81 0-5.48.844-7.59 2.391-3.8-6.75-11.11-11.391-19.41-11.391-12.52 0-22.5 10.125-22.5 22.5v1.266c-7.88 2.672-13.5 10.265-13.5 18.984 0 11.25 9 20.25 20.25 20.25H2379c9.84 0 18-8.016 18-18 0-8.578-6.19-15.891-14.48-17.578zM2038 529.75l-9.12-1.312-4.13-8.313a1.964 1.964 0 0 0-1.81-1.125c-.69 0-1.38.375-1.75 1.125l-4.13 8.313-9.12 1.312c-1.63.25-2.31 2.25-1.13 3.438l6.63 6.374-1.56 9.126c-.19 1.312.81 2.312 2 2.312.31 0 .62-.062.93-.188l8.19-4.312 8.13 4.312c.31.126.62.25.93.25 1.19 0 2.19-1.062 2-2.374l-1.56-9.063 6.63-6.375c1.18-1.25.5-3.25-1.13-3.5zm-8.62 9.312l1.37 8.126-7.31-3.813a.858.858 0 0 0-.94 0l-7.31 3.813 1.37-8.126c.07-.312-.06-.624-.25-.874l-5.93-5.75 8.18-1.188c.32-.062.63-.25.75-.562l3.69-7.438 3.63 7.438c.12.312.43.5.75.562l8.18 1.188-5.93 5.75c-.19.25-.32.562-.25.874zM619 521.75l-9.125-1.312-4.125-8.313a1.971 1.971 0 0 0-1.812-1.125c-.688 0-1.375.375-1.75 1.125l-4.125 8.313-9.125 1.312c-1.625.25-2.313 2.25-1.125 3.438l6.625 6.374-1.563 9.126c-.187 1.312.813 2.312 2 2.312.313 0 .625-.062.938-.188L604 538.5l8.125 4.312c.313.126.625.25.938.25 1.187 0 2.187-1.062 2-2.374l-1.563-9.063 6.625-6.375c1.188-1.25.5-3.25-1.125-3.5zm-8.625 9.312l1.375 8.126-7.312-3.813a.854.854 0 0 0-.938 0l-7.312 3.813 1.375-8.126c.062-.312-.063-.624-.25-.874l-5.938-5.75 8.188-1.188c.312-.062.625-.25.75-.562L604 515.25l3.625 7.438c.125.312.438.5.75.562l8.188 1.188-5.938 5.75c-.187.25-.312.562-.25.874z" fill="#8991A6"/><path d="M798.75 483.125c-.687-1.437-2.812-1.5-3.562 0l-4.125 8.313-9.125 1.312c-1.625.25-2.313 2.25-1.125 3.438l6.625 6.437-1.563 9.063c-.25 1.625 1.438 2.875 2.938 2.125L797 509.5l8.125 4.313c1.5.75 3.188-.5 2.938-2.125l-1.563-9.063 6.625-6.437c1.188-1.188.5-3.188-1.125-3.438l-9.125-1.312-4.125-8.313zM989.938 804.063C989.375 810.188 983.313 815 976 815h-4.062c-7.313 0-13.313-4.812-13.938-10.937-.062-.563.375-1.063 1-1.063h2.938c3.937 0 7.5 1.438 10 3.625V799c-4.375 0-8-3.562-8-8v-6l5 3 5.125-5 4.875 5 5.062-3v6c0 4.438-3.625 8-8 8v7.625c2.5-2.187 6.063-3.625 10-3.625h2.938c.625 0 1.062.5 1 1.063zM1031.94 804.063c-.56 6.125-6.63 10.937-13.94 10.937h-4.06c-7.31 0-13.31-4.812-13.94-10.937-.062-.563.38-1.063 1-1.063h2.94c3.94 0 7.5 1.438 10 3.625V799c-4.38 0-8-3.562-8-8v-6l5 3 5.12-5 4.88 5 5.06-3v6c0 4.438-3.62 8-8 8v7.625c2.5-2.187 6.06-3.625 10-3.625h2.94c.62 0 1.06.5 1 1.063zM947.938 804.063C947.375 810.188 941.313 815 934 815h-4.062c-7.313 0-13.313-4.812-13.938-10.937-.062-.563.375-1.063 1-1.063h2.938c3.937 0 7.5 1.438 10 3.625V799c-4.375 0-8-3.562-8-8v-6l5 3 5.125-5 4.875 5 5.062-3v6c0 4.438-3.625 8-8 8v7.625c2.5-2.187 6.063-3.625 10-3.625h2.938c.625 0 1.062.5 1 1.063zM452.75 587.125c-.687-1.437-2.812-1.5-3.562 0l-4.125 8.313-9.125 1.312c-1.625.25-2.313 2.25-1.125 3.438l6.625 6.437-1.563 9.063c-.25 1.625 1.438 2.875 2.938 2.125L451 613.5l8.125 4.313c1.5.75 3.188-.5 2.938-2.125l-1.563-9.063 6.625-6.437c1.188-1.188.5-3.188-1.125-3.438l-9.125-1.312-4.125-8.313zM1855.75 558.125c-.69-1.437-2.81-1.5-3.56 0l-4.13 8.313-9.12 1.312c-1.63.25-2.31 2.25-1.13 3.438l6.63 6.437-1.56 9.063c-.25 1.625 1.43 2.875 2.93 2.125l8.19-4.313 8.13 4.313c1.5.75 3.18-.5 2.93-2.125l-1.56-9.063 6.63-6.437c1.18-1.188.5-3.188-1.13-3.438l-9.12-1.312-4.13-8.313zM1994.75 392.125c-.69-1.437-2.81-1.5-3.56 0l-4.13 8.313-9.12 1.312c-1.63.25-2.31 2.25-1.13 3.438l6.63 6.437-1.56 9.063c-.25 1.625 1.43 2.875 2.93 2.125l8.19-4.313 8.13 4.313c1.5.75 3.18-.5 2.93-2.125l-1.56-9.063 6.63-6.437c1.18-1.188.5-3.188-1.13-3.438l-9.12-1.312-4.13-8.313zM2456.75 209.125c-.69-1.437-2.81-1.5-3.56 0l-4.13 8.313-9.12 1.312c-1.63.25-2.31 2.25-1.13 3.438l6.63 6.437-1.56 9.063c-.25 1.625 1.43 2.875 2.93 2.125l8.19-4.313 8.13 4.313c1.5.75 3.18-.5 2.93-2.125l-1.56-9.063 6.63-6.437c1.18-1.188.5-3.188-1.13-3.438l-9.12-1.312-4.13-8.313zM1874.75 158.125c-.69-1.437-2.81-1.5-3.56 0l-4.13 8.313-9.12 1.312c-1.63.25-2.31 2.25-1.13 3.438l6.63 6.437-1.56 9.063c-.25 1.625 1.43 2.875 2.93 2.125l8.19-4.313 8.13 4.313c1.5.75 3.18-.5 2.93-2.125l-1.56-9.063 6.63-6.437c1.18-1.188.5-3.188-1.13-3.438l-9.12-1.312-4.13-8.313zM445.75 209.125c-.687-1.437-2.812-1.5-3.562 0l-4.125 8.313-9.125 1.312c-1.625.25-2.313 2.25-1.125 3.438l6.625 6.437-1.563 9.063c-.25 1.625 1.438 2.875 2.938 2.125L444 235.5l8.125 4.313c1.5.75 3.188-.5 2.938-2.125l-1.563-9.063 6.625-6.437c1.188-1.188.5-3.188-1.125-3.438l-9.125-1.312-4.125-8.313z" fill="#FFD43B"/><path d="M2339 259.75l-9.12-1.312-4.13-8.313a1.964 1.964 0 0 0-1.81-1.125c-.69 0-1.38.375-1.75 1.125l-4.13 8.313-9.12 1.312c-1.63.25-2.31 2.25-1.13 3.438l6.63 6.374-1.56 9.126c-.19 1.312.81 2.312 2 2.312.31 0 .62-.062.93-.188l8.19-4.312 8.13 4.312c.31.126.62.25.93.25 1.19 0 2.19-1.062 2-2.374l-1.56-9.063 6.63-6.375c1.18-1.25.5-3.25-1.13-3.5zm-8.62 9.312l1.37 8.126-7.31-3.813a.858.858 0 0 0-.94 0l-7.31 3.813 1.37-8.126c.07-.312-.06-.624-.25-.874l-5.93-5.75 8.18-1.188c.32-.062.63-.25.75-.562l3.69-7.438 3.63 7.438c.12.312.43.5.75.562l8.18 1.188-5.93 5.75c-.19.25-.32.562-.25.874z" fill="#8991A6"/><path d="M2201 318.75l-9.12-1.312-4.13-8.313a1.964 1.964 0 0 0-1.81-1.125c-.69 0-1.38.375-1.75 1.125l-4.13 8.313-9.12 1.312c-1.63.25-2.31 2.25-1.13 3.438l6.63 6.374-1.56 9.126c-.19 1.312.81 2.312 2 2.312.31 0 .62-.062.93-.188l8.19-4.312 8.13 4.312c.31.126.62.25.93.25 1.19 0 2.19-1.062 2-2.374l-1.56-9.063 6.63-6.375c1.18-1.25.5-3.25-1.13-3.5zm-8.62 9.312l1.37 8.126-7.31-3.813a.858.858 0 0 0-.94 0l-7.31 3.813 1.37-8.126c.07-.312-.06-.624-.25-.874l-5.93-5.75 8.18-1.188c.32-.062.63-.25.75-.562l3.69-7.438 3.63 7.438c.12.312.43.5.75.562l8.18 1.188-5.93 5.75c-.19.25-.32.562-.25.874z" fill="#fff"/><path d="M569 308.75l-9.125-1.312-4.125-8.313a1.971 1.971 0 0 0-1.812-1.125c-.688 0-1.375.375-1.75 1.125l-4.125 8.313-9.125 1.312c-1.625.25-2.313 2.25-1.125 3.438l6.625 6.374-1.563 9.126c-.187 1.312.813 2.312 2 2.312.313 0 .625-.062.938-.188L554 325.5l8.125 4.312c.313.126.625.25.938.25 1.187 0 2.187-1.062 2-2.374l-1.563-9.063 6.625-6.375c1.188-1.25.5-3.25-1.125-3.5zm-8.625 9.312l1.375 8.126-7.312-3.813a.854.854 0 0 0-.938 0l-7.312 3.813 1.375-8.126c.062-.312-.063-.624-.25-.874l-5.938-5.75 8.188-1.188c.312-.062.625-.25.75-.562L554 302.25l3.625 7.438c.125.312.438.5.75.562l8.188 1.188-5.938 5.75c-.187.25-.312.562-.25.874z" fill="#8991A6"/><path d="M804 235.75l-9.125-1.312-4.125-8.313a1.971 1.971 0 0 0-1.812-1.125c-.688 0-1.375.375-1.75 1.125l-4.125 8.313-9.125 1.312c-1.625.25-2.313 2.25-1.125 3.438l6.625 6.374-1.563 9.126c-.187 1.312.813 2.312 2 2.312.313 0 .625-.062.938-.188L789 252.5l8.125 4.312c.313.126.625.25.938.25 1.187 0 2.187-1.062 2-2.374l-1.563-9.063 6.625-6.375c1.188-1.25.5-3.25-1.125-3.5zm-8.625 9.312l1.375 8.126-7.312-3.813a.854.854 0 0 0-.938 0l-7.312 3.813 1.375-8.126c.062-.312-.063-.624-.25-.874l-5.938-5.75 8.188-1.188c.312-.062.625-.25.75-.562L789 229.25l3.625 7.438c.125.312.438.5.75.562l8.188 1.188-5.938 5.75c-.187.25-.312.562-.25.874zM2337.25 563.438c.13.374.06.812-.12 1.124-.25.313-.57.626-.94.688l-2 .562 2.06 1.188a1.4 1.4 0 0 1 .56 2c-.37.75-1.31 1-2.06.562l-2.06-1.187.56 2c.19.813-.25 1.625-1.06 1.813a1.42 1.42 0 0 1-1.81-1.063l-1.32-4.875-4.56-2.625v5.313l3.5 3.562c.63.562.63 1.5 0 2.062-.25.313-.62.438-1 .438-.44 0-.81-.125-1.06-.438l-1.44-1.437v2.375c0 .875-.69 1.5-1.5 1.5-.87 0-1.5-.625-1.5-1.5v-2.375l-1.5 1.437c-.56.626-1.5.626-2.06 0-.63-.562-.63-1.5 0-2.062l3.56-3.562v-5.313l-4.62 2.625-1.32 4.875a1.42 1.42 0 0 1-1.81 1.063c-.81-.188-1.25-1-1.06-1.813l.56-2-2.06 1.187c-.75.438-1.69.188-2.06-.562a1.4 1.4 0 0 1 .56-2l2.06-1.188-2-.562c-.81-.188-1.25-1-1.06-1.812.25-.813 1.06-1.313 1.81-1.063l4.88 1.313L2320 561l-4.62-2.625-4.82 1.313c-.81.187-1.62-.25-1.87-1.063-.19-.813.25-1.625 1.06-1.813l2-.562-2.06-1.188c-.75-.374-1-1.312-.56-2.062.37-.688 1.31-.938 2.06-.5l2.06 1.188-.56-2c-.19-.813.25-1.626 1.06-1.813.81-.25 1.63.25 1.81 1.063l1.32 4.874 4.62 2.626v-5.313l-3.56-3.563c-.63-.562-.63-1.5 0-2.062.56-.625 1.5-.625 2.06 0l1.5 1.438V546.5c0-.812.63-1.5 1.5-1.5.81 0 1.5.688 1.5 1.5v2.438l1.44-1.438c.56-.625 1.5-.625 2.06 0 .63.562.63 1.5 0 2.062l-3.5 3.563v5.313l4.56-2.626 1.32-4.874a1.42 1.42 0 0 1 1.81-1.063c.37.125.69.375.87.687.25.313.32.75.19 1.126l-.56 2 2.06-1.188c.75-.438 1.69-.188 2.06.5.44.75.19 1.688-.56 2.062l-2.06 1.188 2 .562c.81.188 1.25 1 1.06 1.813-.25.813-1.06 1.313-1.81 1.063l-4.88-1.313L2326 561l4.56 2.625 4.82-1.313c.81-.187 1.62.313 1.87 1.126zM336 451.75l-9.125-1.312-4.125-8.313a1.971 1.971 0 0 0-1.812-1.125c-.688 0-1.375.375-1.75 1.125l-4.125 8.313-9.125 1.312c-1.625.25-2.313 2.25-1.125 3.438l6.625 6.374-1.563 9.126c-.187 1.312.813 2.312 2 2.312.313 0 .625-.062.938-.188L321 468.5l8.125 4.312c.313.126.625.25.938.25 1.187 0 2.187-1.062 2-2.374l-1.563-9.063 6.625-6.375c1.188-1.25.5-3.25-1.125-3.5zm-8.625 9.312l1.375 8.126-7.312-3.813a.854.854 0 0 0-.938 0l-7.312 3.813 1.375-8.126c.062-.312-.063-.624-.25-.874l-5.938-5.75 8.188-1.188c.312-.062.625-.25.75-.562L321 445.25l3.625 7.438c.125.312.438.5.75.562l8.188 1.188-5.938 5.75c-.187.25-.312.562-.25.874z" fill="#fff"/><path d="M2164.64 476.123a4.495 4.495 0 0 0 0 6.364c1.79 1.79 4.57 1.79 6.36 0a4.495 4.495 0 0 0 0-6.364c-1.72-1.723-4.64-1.723-6.36 0zm23.33-21.213c.53-.53.6-1.525 0-2.121l-3.44-3.447c-.47-.464-1.2-.531-1.73-.266l-23 10.673c-5.04 2.387-9.28 6.364-11.27 11.535-5.44 13.656 4.44 22.871 4.44 22.871s9.28 9.943 22.94 4.507c5.17-1.988 9.15-6.231 11.53-11.269l.67-1.459.46.067c1.33.132 2.65-.398 3.65-1.392l4.24-4.243c1.72-1.724 1.79-4.574.06-6.298-.66-.663-1.45-1.06-2.32-1.259l3.92-8.419c.26-.531.19-1.26-.27-1.724l-3.45-3.447c-.59-.597-1.59-.53-2.12 0l-9.54 9.546-4.31-4.309 9.54-9.546zm-28.64 35.002c-.59.597-1.52.597-2.12 0-.53-.53-.59-1.525 0-2.121.53-.531 1.59-.531 2.12 0 .6.596.54 1.591 0 2.121zm8.49 4.243a1.48 1.48 0 0 1-2.12 0c-.53-.531-.6-1.525 0-2.122.53-.53 1.59-.53 2.12 0 .6.597.53 1.591 0 2.122zm-12.73-12.728a1.48 1.48 0 0 1-2.12 0c-.53-.531-.6-1.525 0-2.122.53-.53 1.59-.53 2.12 0 .6.597.53 1.591 0 2.122zm18.03 3.182c-2.98 2.983-7.62 2.983-10.6 0-2.92-2.917-2.99-7.624 0-10.607 2.91-2.917 7.69-2.917 10.6 0 2.92 3.049 2.92 7.69 0 10.607z" fill="#8991A6"/></g><defs><clipPath id="clip0"><path fill="#fff" d="M0 0h2667v815H0z"/></clipPath></defs></svg>